<svg width="122" height="121" viewBox="0 0 122 121" fill="none" xmlns="http://www.w3.org/2000/svg">
<path d="M62.6176 74.9816C62.1654 74.0285 61.0254 73.622 60.072 74.0746C58.5209 74.8107 56.8946 75.4192 55.2385 75.8825C54.5457 76.0763 54.0207 76.6424 53.8798 77.348L51.8582 87.4552C51.6587 88.4532 50.7751 89.1777 49.7573 89.1777H44.2427C43.2249 89.1777 42.3415 88.4535 42.1418 87.4552L40.1202 77.348C39.9791 76.6424 39.4539 76.0763 38.7615 75.8825C36.4218 75.2277 34.1639 74.2921 32.0504 73.1017C31.4233 72.7486 30.651 72.7776 30.0525 73.1766L21.4751 78.8947C20.6284 79.4592 19.4914 79.3464 18.7714 78.6269L14.872 74.7273C14.1522 74.0075 14.04 72.8705 14.6042 72.0236L20.3223 63.4463C20.7215 62.8475 20.7506 62.0755 20.3972 61.4484C19.2066 59.3346 18.271 57.0765 17.6164 54.7373C17.4226 54.0444 16.8565 53.5194 16.1509 53.3786L6.04363 51.357C5.04563 51.1575 4.32111 50.2739 4.32111 49.2561V43.7416C4.32111 42.7237 5.04539 41.8403 6.04363 41.6406L16.1509 39.6191C16.8565 39.478 17.4226 38.9527 17.6164 38.2604C18.2712 35.9207 19.2068 33.6628 20.3972 31.5493C20.7504 30.9224 20.7213 30.1501 20.3223 29.5514L14.6047 20.975C14.0402 20.1281 14.1527 18.9913 14.8725 18.2713L18.7719 14.372C19.4916 13.6522 20.6289 13.5399 21.4756 14.1041L30.0529 19.8222C30.6515 20.2214 31.424 20.2503 32.0508 19.8971C34.1643 18.7067 36.4223 17.7711 38.762 17.1163C39.4548 16.9225 39.9798 16.3564 40.1207 15.6508L42.1422 5.5436C42.3417 4.5456 43.2253 3.8211 44.2432 3.8211H49.7578C50.7756 3.8211 51.659 4.54537 51.8587 5.5436L53.8803 15.6508C54.0214 16.3564 54.5466 16.9225 55.239 17.1163C57.5787 17.7711 59.8366 18.7067 61.9501 19.8971C62.5772 20.2503 63.3495 20.2212 63.948 19.8222L72.5254 14.1041C73.3721 13.5397 74.5088 13.6524 75.2291 14.372L79.1284 18.2713C79.8482 18.9911 79.9605 20.1281 79.3963 20.975L73.6782 29.5523C73.2789 30.1511 73.2499 30.9231 73.6033 31.5502C74.7937 33.6637 75.7293 35.9216 76.3841 38.2613C76.5779 38.9541 77.144 39.4791 77.8496 39.62L87.9568 41.6415C88.9548 41.8411 89.6794 42.7246 89.6794 43.7425V49.257C89.6794 50.2749 88.9551 51.1582 87.9568 51.358L77.8496 53.3795C77.144 53.5206 76.5779 54.0459 76.3841 54.7387C75.9092 56.4359 75.2825 58.1007 74.5214 59.6871C74.0647 60.6385 74.466 61.78 75.4175 62.2365C76.3689 62.6934 77.5107 62.2918 77.9669 61.3403C78.6538 59.9086 79.2436 58.4201 79.726 56.9018L88.7064 55.1058C91.4837 54.5498 93.5 52.09 93.5 49.2568V43.7423C93.5 40.909 91.4837 38.4495 88.7052 37.8935L79.7251 36.0975C79.136 34.2433 78.3895 32.4407 77.495 30.7153L82.5754 23.0946C84.1468 20.7372 83.8336 17.5721 81.8301 15.5685L77.9307 11.6692C75.9269 9.66561 72.7617 9.35264 70.4045 10.9239L62.7838 16.0042C61.0585 15.1099 59.2558 14.3632 57.4016 13.7741L55.6056 4.79404C55.0503 2.01633 52.5906 0 49.7573 0H44.2427C41.4094 0 38.9499 2.01633 38.3939 4.79475L36.5979 13.7749C34.7437 14.3639 32.9411 15.1104 31.2157 16.0049L23.5955 10.9246C21.2383 9.35311 18.0729 9.66608 16.0693 11.6699L12.1699 15.5692C10.1666 17.5728 9.85316 20.7377 11.4246 23.0953L16.505 30.716C15.6107 32.4414 14.864 34.2438 14.2749 36.0982L5.29454 37.8942C2.51634 38.4497 0.5 40.9095 0.5 43.7427V49.2573C0.5 52.0905 2.51634 54.5501 5.29477 55.106L14.2749 56.9021C14.8638 58.756 15.6105 60.5586 16.505 62.2842L11.4246 69.9049C9.85316 72.2623 10.1664 75.4275 12.1699 77.431L16.0693 81.3304C18.0729 83.3339 21.238 83.6469 23.5955 82.0757L31.2162 76.9954C32.9415 77.8896 34.7439 78.6363 36.5984 79.2254L38.3944 88.206C38.9499 90.9834 41.4097 93 44.243 93H49.7575C52.5908 93 55.0503 90.9837 55.6063 88.2053L57.4023 79.2251C58.8748 78.7573 60.32 78.1884 61.7111 77.5279C62.6644 77.075 63.0705 75.9352 62.6176 74.9816Z" fill="#BF0018"/>
<path d="M63.5785 56.7909C63.8571 56.9328 64.1545 57 64.4477 57C65.1407 57 65.8095 56.6242 66.1473 55.9706C67.6863 52.9938 68.5 49.6411 68.5 46.2747C68.5 34.5439 58.8773 25 47.0491 25C41.4221 25 36.1047 27.145 32.0762 31.0404C31.3216 31.7699 31.3062 32.9683 32.0418 33.7166C32.7773 34.4648 33.9854 34.4805 34.7401 33.7507C38.0517 30.549 42.4229 28.7854 47.0486 28.7854C56.7721 28.7854 64.683 36.6311 64.683 46.275C64.683 49.0829 64.0329 51.764 62.7509 54.2438C62.2703 55.1732 62.6407 56.3138 63.5785 56.7909Z" fill="#3E3E3E"/>
<path d="M29.1072 38.1054C28.1049 37.7592 27.0136 38.2941 26.6687 39.3001C25.8933 41.5632 25.5 43.9345 25.5 46.3475C25.5 58.2868 35.1757 68 47.0684 68C51.6423 68 56.0124 66.5808 59.7064 63.8953C60.5647 63.2712 60.7567 62.0668 60.1353 61.2052C59.514 60.3436 58.3139 60.1508 57.4557 60.7746C54.4205 62.9808 50.8287 64.1471 47.0682 64.1471C37.2912 64.1471 29.3372 56.1619 29.3372 46.347C29.3372 44.3612 29.66 42.4114 30.297 40.5527C30.6416 39.5469 30.109 38.4511 29.1072 38.1054Z" fill="#3E3E3E"/>
<path d="M117.848 83.745L112.359 82.6474C112.025 81.6527 111.622 80.6814 111.156 79.7426L114.261 75.0851C115.458 73.2891 115.219 70.878 113.693 69.3519L111.148 66.807C109.622 65.2809 107.211 65.0422 105.415 66.2393L100.757 69.3444C99.8186 68.8777 98.8474 68.475 97.8526 68.141L96.7551 62.6526C96.3318 60.5361 94.458 59 92.2998 59H88.7005C86.5424 59 84.6685 60.5361 84.2452 62.6526L83.1476 68.141C82.1529 68.4753 81.1816 68.8779 80.2427 69.3444L75.5853 66.2393C73.7893 65.0424 71.3781 65.2807 69.8521 66.807L67.3072 69.3519C65.7809 70.8782 65.5424 73.2893 66.7395 75.0851L69.8446 79.7426C69.2027 81.0334 68.6827 82.3852 68.2939 83.7753C68.0115 84.7848 68.601 85.8319 69.6103 86.1146C70.6198 86.397 71.6669 85.8077 71.9496 84.7982C72.3628 83.321 72.9535 81.8959 73.7048 80.5622C74.0555 79.9393 74.0266 79.1723 73.6303 78.5779L69.8981 72.9797C69.7012 72.6841 69.7404 72.2873 69.9916 72.0361L72.5365 69.4911C72.7877 69.2402 73.1845 69.2012 73.4801 69.3977L79.0783 73.1299C79.6727 73.5264 80.4397 73.5551 81.0626 73.2043C82.3965 72.4531 83.8214 71.8624 85.2986 71.4492C85.9867 71.2566 86.5081 70.6944 86.6481 69.9936L87.9673 63.3971C88.0368 63.0489 88.3452 62.7961 88.7005 62.7961H92.2998C92.6548 62.7961 92.9632 63.0489 93.033 63.3971L94.3522 69.994C94.4923 70.6948 95.014 71.2571 95.7016 71.4496C97.1788 71.8628 98.6039 72.4535 99.9377 73.2048C100.56 73.5556 101.328 73.5267 101.922 73.1304L107.52 69.3982C107.816 69.2012 108.213 69.2402 108.464 69.4916L111.009 72.0366C111.26 72.2878 111.299 72.6845 111.102 72.9801L107.37 78.5783C106.973 79.173 106.944 79.9398 107.295 80.5626C108.047 81.8966 108.637 83.3215 109.051 84.7987C109.243 85.4868 109.805 86.0082 110.506 86.1482L117.103 87.4674C117.451 87.5369 117.704 87.8454 117.704 88.2006V91.7999C117.704 92.1549 117.451 92.4634 117.103 92.5331L110.506 93.8523C109.805 93.9925 109.243 94.5141 109.05 95.2018C108.637 96.679 108.046 98.1041 107.295 99.4378C106.944 100.061 106.973 100.828 107.369 101.422L111.102 107.02C111.299 107.316 111.259 107.713 111.008 107.964L108.463 110.509C108.212 110.76 107.816 110.799 107.52 110.602L101.922 106.87C101.327 106.474 100.56 106.445 99.9372 106.796C98.6032 107.547 97.1784 108.138 95.7012 108.551C95.0131 108.743 94.4916 109.306 94.3517 110.006L93.0325 116.603C92.963 116.951 92.6545 117.204 92.2993 117.204H88.7C88.345 117.204 88.0365 116.951 87.9668 116.603L86.6476 110.006C86.5074 109.305 85.9858 108.743 85.2981 108.55C83.8209 108.137 82.3958 107.546 81.0621 106.795C80.4392 106.444 79.672 106.473 79.0778 106.87L73.4796 110.602C73.184 110.799 72.7873 110.76 72.536 110.508L69.9911 107.963C69.7401 107.712 69.7009 107.315 69.8977 107.02L73.6299 101.422C74.0264 100.827 74.0553 100.06 73.7043 99.4374C72.953 98.1034 72.3623 96.6785 71.9491 95.2013C71.7566 94.5132 71.1943 93.9918 70.4935 93.8518L63.8971 92.5326C63.5489 92.4631 63.2961 92.1546 63.2961 91.7994V88.2001C63.2961 87.8451 63.5489 87.5366 63.8971 87.4669L64.3009 87.3861C65.3287 87.1805 65.9955 86.1806 65.7896 85.1527C65.5839 84.1249 64.5852 83.4593 63.556 83.664L63.1521 83.7448C61.0361 84.1683 59.5 86.0421 59.5 88.2003V91.7997C59.5 93.9577 61.0361 95.8317 63.1526 96.255L68.6409 97.3526C68.9752 98.3473 69.3779 99.3186 69.8444 100.257L66.7392 104.915C65.5419 106.711 65.7807 109.122 67.3069 110.648L69.8519 113.193C71.3781 114.719 73.7893 114.958 75.5851 113.761L80.2425 110.656C81.1814 111.122 82.1526 111.525 83.1474 111.859L84.2449 117.347C84.6687 119.464 86.5424 121 88.7007 121H92.3C94.458 121 96.332 119.464 96.7553 117.347L97.8529 111.859C98.8476 111.525 99.8189 111.122 100.758 110.655L105.415 113.76C107.211 114.958 109.622 114.719 111.148 113.193L113.693 110.648C115.22 109.122 115.458 106.71 114.261 104.915L111.156 100.257C111.623 99.3183 112.025 98.3471 112.359 97.3523L117.848 96.2547C119.964 95.8315 121.5 93.9577 121.5 91.7994V88.2001C121.5 86.0421 119.964 84.1683 117.848 83.745Z" fill="#BF0018"/>
<path d="M91.0002 82.7501C94.7223 82.7501 97.7501 85.778 97.7501 89.5C97.7501 90.5356 98.5897 91.3749 99.6251 91.3749C100.66 91.3749 101.5 90.5353 101.5 89.5C101.5 83.7103 96.7897 79 91 79C85.2103 79 80.5 83.7103 80.5 89.5C80.5 95.2897 85.2103 100 91 100C93.3451 100 95.5633 99.2437 97.415 97.8131C98.2344 97.1799 98.3854 96.0024 97.7525 95.1828C97.1193 94.3634 95.9415 94.2122 95.1221 94.8453C93.9328 95.764 92.5073 96.2499 91 96.2499C87.278 96.2499 84.2501 93.222 84.2501 89.5C84.2503 85.7777 87.2782 82.7501 91.0002 82.7501Z" fill="#BF0018"/>
<path fill-rule="evenodd" clip-rule="evenodd" d="M47 35C53.3408 35 58.5 40.1589 58.5 46.5C58.5 52.8408 53.3411 58 47 58C40.6589 58 35.5 52.8411 35.5 46.5C35.5 40.1592 40.6589 35 47 35ZM47 38.775C42.7407 38.775 39.275 42.2407 39.275 46.5C39.275 50.7593 42.7402 54.225 47 54.225C51.2595 54.225 54.725 50.7593 54.725 46.5C54.725 42.2407 51.2593 38.775 47 38.775Z" fill="#3E3E3E"/>
</svg>
