<svg width="97" height="116" viewBox="0 0 97 116" fill="none" xmlns="http://www.w3.org/2000/svg">
<path fill-rule="evenodd" clip-rule="evenodd" d="M80.9235 66.1842L96.2272 103.259C96.4985 103.917 96.3706 104.672 95.8976 105.202C95.4247 105.732 94.6912 105.944 94.0097 105.746L79.1217 101.416L71.6445 115.042C71.3192 115.635 70.6986 116 70.0294 116C69.9952 116 69.9613 115.999 69.9268 115.997C69.219 115.958 68.596 115.515 68.3247 114.857L51.6449 74.4481C50.5647 74.5431 49.4722 74.5947 48.3676 74.5947C37.6679 74.5947 28.0114 70.0324 21.2237 62.7466L5.38526 101.118L18.0044 97.4484C18.8323 97.2073 19.7175 97.575 20.1336 98.3335L26.471 109.882L39.301 78.8003C39.6908 77.8557 40.7698 77.4073 41.711 77.7985C42.6523 78.1897 43.0992 79.2724 42.7093 80.217L28.4108 114.857C28.1393 115.515 27.5165 115.958 26.8084 115.997C26.7743 115.999 26.7401 116 26.7061 116C26.0369 116 25.4164 115.635 25.0907 115.042L17.6139 101.416L2.72581 105.746C2.04477 105.944 1.31061 105.732 0.837899 105.202C0.364938 104.672 0.236799 103.917 0.508081 103.259L18.5529 59.543C13.9359 53.3279 11.2 45.6275 11.2 37.2975C11.2 16.7316 27.8734 0 48.3676 0C68.8619 0 85.535 16.7316 85.5348 37.2975C85.5348 55.444 72.5526 70.6028 55.419 73.9184L70.2638 109.882L76.6017 98.3335C77.0176 97.575 77.9022 97.2073 78.7306 97.4484L91.35 101.118L77.5151 67.6009C77.125 66.6566 77.5722 65.5738 78.5134 65.1824C79.4547 64.7909 80.5337 65.2399 80.9235 66.1842ZM48.3676 3.70213C29.9077 3.70213 14.8892 18.773 14.8892 37.2975C14.8892 55.8219 29.9077 70.8925 48.3676 70.8925C66.8276 70.8925 81.8458 55.8219 81.8458 37.2975C81.8458 18.773 66.8276 3.70213 48.3676 3.70213Z" fill="#BF0018"/>
<path fill-rule="evenodd" clip-rule="evenodd" d="M68.8213 29.2731C69.5024 29.3873 70.0637 29.8701 70.2769 30.5255C70.4903 31.1812 70.3209 31.9008 69.8371 32.3927L60.9804 41.3972L62.8429 53.8781C62.9447 54.5599 62.6581 55.2415 62.0992 55.6469C61.7768 55.8807 61.3947 56 61.01 56C60.7284 56 60.4457 55.9359 60.1841 55.8059L48.8677 50.1807L37.551 55.8059C36.9329 56.1129 36.1944 56.0515 35.6361 55.6466C35.0773 55.2412 34.7907 54.5597 34.8925 53.8778L36.7552 41.3969L27.8985 32.3927C27.4145 31.9008 27.245 31.1812 27.4585 30.5255C27.6719 29.8699 28.233 29.387 28.9141 29.2731L41.3818 27.1847L47.2245 15.9947C47.5437 15.3834 48.1772 15 48.8677 15C49.5584 15 50.1916 15.3834 50.5108 15.9947L56.3533 27.1847L68.8213 29.2731ZM57.179 41.031C57.0932 40.4574 57.2822 39.877 57.6894 39.4629L64.7019 32.3338L54.8303 30.6802C54.2571 30.5842 53.7625 30.2254 53.4937 29.7111L48.8677 20.8511L44.2416 29.7108C43.9731 30.2252 43.4782 30.584 42.9051 30.6799L33.0337 32.3335L40.0462 39.4629C40.4534 39.8767 40.6423 40.4574 40.5566 41.031L39.0817 50.9128L48.0418 46.4592C48.3017 46.3297 48.5848 46.2651 48.8677 46.2651C49.1508 46.2651 49.4334 46.33 49.6938 46.4592L58.6539 50.9128L57.179 41.031Z" fill="#3E3E3E"/>
<path d="M76.7471 38.8739C75.7257 38.7379 74.7881 39.4543 74.653 40.4715C72.9228 53.477 61.6754 63.2849 48.4909 63.2849C33.938 63.2849 22.0983 51.4938 22.0983 37.0001C22.0983 22.5065 33.938 10.7154 48.4909 10.7154C61.6757 10.7154 72.9228 20.523 74.653 33.5287C74.7881 34.546 75.7274 35.2628 76.7471 35.1263C77.7681 34.9916 78.4866 34.0578 78.3511 33.0408C76.3763 18.1952 63.5393 7 48.4909 7C31.881 7 18.3677 20.4578 18.3677 37.0001C18.3677 53.5424 31.881 67 48.4909 67C63.5393 67 76.3763 55.8048 78.3513 40.9592C78.4866 39.9424 77.7683 39.0087 76.7471 38.8739Z" fill="#BF0018"/>
</svg>
