<svg width="137" height="116" viewBox="0 0 137 116" fill="none" xmlns="http://www.w3.org/2000/svg">
<path fill-rule="evenodd" clip-rule="evenodd" d="M132.873 66.7214C133.737 66.0347 134.992 66.1796 135.678 67.0463C136.363 67.9125 136.218 69.1713 135.354 69.8582L129.844 74.24C128.98 74.927 127.683 74.7629 127.016 73.8845L125.166 71.4494L121.665 73.9415C121.906 74.4113 122.105 74.9065 122.257 75.4243C122.89 77.5785 122.647 79.8506 121.576 81.8221C120.504 83.7939 118.731 85.2288 116.582 85.8633C115.799 86.0947 114.999 86.2095 114.203 86.2095C113.696 86.2095 113.191 86.1618 112.693 86.0691C112.887 87.7717 112.558 89.4902 111.723 91.026C110.204 93.8217 107.32 95.4078 104.348 95.4081C103.844 95.4081 103.338 95.3623 102.835 95.2693C103.023 96.9274 102.725 98.6566 101.87 100.23C100.351 103.026 97.4669 104.612 94.4951 104.612C93.9928 104.612 93.4883 104.566 92.9871 104.474C93.1815 106.177 92.8524 107.897 92.017 109.434C90.9455 111.406 89.1722 112.84 87.0241 113.475C86.2403 113.706 85.4399 113.821 84.6449 113.821C83.2616 113.821 81.8925 113.474 80.6441 112.792L72.4515 108.314C71.8647 109.369 71.0516 110.292 70.0441 111.023L65.3872 114.402C63.9419 115.451 62.2409 116 60.4907 116C60.0442 116 59.5945 115.964 59.145 115.892C56.9342 115.537 54.9936 114.338 53.6809 112.52C52.658 111.102 52.1142 109.44 52.0906 107.726C51.273 107.989 50.4185 108.125 49.5518 108.125C49.1052 108.125 48.6555 108.089 48.2061 108.017C45.9953 107.661 44.0547 106.463 42.742 104.644C41.6933 103.191 41.1788 101.511 41.1565 99.8405C40.329 100.103 39.4721 100.233 38.6184 100.233C36.0634 100.233 33.5352 99.0779 31.8992 96.8989C30.8218 95.464 30.2552 93.746 30.2499 91.9588C29.4074 92.2331 28.5359 92.3692 27.6681 92.3692C25.0676 92.3692 22.5022 91.1629 20.8646 88.8938C18.9492 86.2393 18.8108 82.8311 20.2155 80.1007L15.9094 77.7978L14.3832 80.4485C13.8402 81.3919 12.5992 81.7265 11.6565 81.181L1.10834 75.074C0.153689 74.5213 -0.173294 73.2971 0.377876 72.3399C0.928514 71.3826 2.14906 71.0542 3.1045 71.6074L5.26881 72.8603L31.4875 27.3229L1.10834 9.73524C0.153689 9.18255 -0.173294 7.95838 0.377876 7.0011C0.928514 6.04382 2.14906 5.71567 3.1045 6.26862L41.8681 28.7109C42.8089 29.2556 43.142 30.5005 42.5985 31.445L39.6079 36.639L42.7521 38.4694L52.0059 37.3826C52.3472 37.3427 52.6946 37.3917 53.0123 37.5259L56.339 38.9304L57.657 33.6443C57.8791 32.7534 58.6775 32.1282 59.5934 32.1282H83.014C83.2249 32.1282 83.4403 32.1637 83.6403 32.2292L93.8708 35.6186L96.4477 33.6406L92.8237 28.8694C92.1273 27.9526 92.3679 26.5939 93.3337 25.9722L113.246 13.1566C114.174 12.5594 115.408 12.8295 116.004 13.7599C116.599 14.6902 116.33 15.9283 115.402 16.5254L97.3101 28.1691L128.957 69.8351L132.873 66.7214ZM8.72617 74.862L11.9243 76.7137L38.1429 31.1763L34.9448 29.3246L8.72617 74.862ZM30.2305 87.533C28.2694 88.9567 25.5184 88.5145 24.0989 86.5473C22.6797 84.5802 23.1209 81.8216 25.0825 80.3982L39.2028 70.1534C39.9872 69.5844 40.8895 69.309 41.7825 69.309C43.0971 69.309 44.3918 69.9054 45.2598 71.0387C46.7478 72.9821 46.3287 75.8523 44.3522 77.2877L30.2305 87.533ZM35.0883 94.4913C36.5163 96.3936 39.2445 96.8051 41.1692 95.4086L52.1363 87.4515C54.1131 86.0161 54.5319 83.1456 53.0439 81.2026C52.2694 80.1915 51.0791 79.5504 49.8078 79.4795C49.1435 79.4425 48.4731 79.5608 47.8608 79.8215C47.514 79.969 47.216 80.1733 46.9123 80.3814L46.9116 80.3819L46.91 80.383C46.8376 80.4325 46.765 80.4823 46.6913 80.5316L36.137 88.1891C34.1785 89.6101 33.6087 92.5211 35.0883 94.4913ZM52.1079 103.284C51.1577 103.974 49.9967 104.251 48.8383 104.064C47.6802 103.878 46.6636 103.25 45.9759 102.297C44.5572 100.331 44.9974 97.5746 46.9566 96.1507L54.4778 90.6936L54.771 90.4808C56.7098 89.0744 59.3703 89.4633 60.828 91.3661C62.3163 93.31 61.8966 96.181 59.9191 97.6159L52.1079 103.284ZM67.7034 107.78C68.673 107.077 69.3022 106.035 69.4746 104.848C69.6473 103.66 69.341 102.482 68.6119 101.531C67.1767 99.6564 64.466 99.259 62.5551 100.645L62.2595 100.86L57.8979 104.024C55.9652 105.437 55.5062 108.221 56.9146 110.173C58.3166 112.116 61.1064 112.567 63.0465 111.159L67.7034 107.78ZM118.07 79.906C116.926 82.0118 114.216 82.8148 112.113 81.665L89.0349 69.0515C88.0664 68.5227 86.8544 68.8805 86.3269 69.8511C85.7993 70.8216 86.1561 72.0373 87.124 72.5665L106.463 83.1363C108.589 84.2984 109.376 86.9782 108.217 89.1101C107.059 91.2418 104.386 92.0315 102.26 90.8691L82.6376 80.1443C81.6697 79.6154 80.4574 79.9733 79.9298 80.9439C79.4023 81.9145 79.759 83.1302 80.7272 83.6594L96.6134 92.3423C98.7371 93.5055 99.5225 96.1834 98.3647 98.3143C97.2204 100.42 94.511 101.223 92.407 100.073L75.7752 90.9829C74.8065 90.4541 73.5947 90.8119 73.0672 91.7825C72.5396 92.7531 72.8964 93.9687 73.8643 94.498L86.7572 101.545C88.8575 102.692 89.658 105.409 88.5113 107.519C87.367 109.625 84.6577 110.427 82.5542 109.277L73.5108 104.335C73.5426 102.446 72.9458 100.617 71.7781 99.0926C70.2099 97.0448 67.9125 95.9155 65.5431 95.8002C65.5806 95.6225 65.6148 95.4432 65.6411 95.2619C65.9705 92.9949 65.3859 90.7458 63.9943 88.9287C62.4258 86.8813 60.1284 85.7519 57.759 85.6366C57.7965 85.4589 57.8307 85.2797 57.857 85.098C58.1864 82.8308 57.6018 80.582 56.2102 78.7649C54.6416 76.7171 52.3443 75.5881 49.9749 75.4727C50.0124 75.2951 50.0466 75.1158 50.0729 74.9344C50.4023 72.6672 49.8176 70.4181 48.426 68.6013C45.6434 64.9677 40.5633 64.2256 36.8626 66.9113L22.9325 77.0168L17.9064 74.3288L37.6114 40.105L41.3217 42.2652C41.6949 42.4825 42.1286 42.572 42.556 42.5222L51.9474 41.4192L55.3588 42.8597L53.3983 50.7241C53.3589 50.8828 53.3388 51.0458 53.3388 51.2097V68.2897C53.3388 74.1023 58.0549 78.8312 63.8514 78.8312C69.6481 78.8312 74.364 74.1021 74.364 68.2897V51.7837L74.7268 51.2017L116.316 73.9321C118.416 75.0799 119.217 77.7959 118.07 79.906ZM118.227 70.4171C118.503 70.5681 118.768 70.7348 119.022 70.9127L122.745 68.2633L98.8662 36.8251L95.4593 39.4402C94.9402 39.8387 94.2411 39.9572 93.6201 39.7513L82.6926 36.1313H61.1516L57.3311 51.456V68.2897C57.3311 71.8951 60.2559 74.8282 63.8516 74.8282C67.4474 74.8282 70.3722 71.8948 70.3722 68.2897V51.2097C70.3722 50.8344 70.4776 50.4668 70.6755 50.1488L74.9967 43.2158C75.5808 42.2782 76.8133 41.9938 77.7472 42.5792C78.6822 43.1649 78.9664 44.3998 78.3823 45.3373L76.847 47.8003L118.227 70.4171Z" fill="#BF0018"/>
<path d="M135.797 0.904165C135.209 -0.00950032 133.989 -0.274733 133.072 0.311708L122.018 7.37987C121.101 7.96631 120.834 9.18209 121.423 10.0958C121.8 10.6809 122.435 11 123.085 11C123.45 11 123.819 10.8993 124.149 10.6885L135.203 3.62031C136.12 3.03335 136.386 1.81757 135.797 0.904165Z" fill="#3E3E3E"/>
</svg>
