<svg width="120" height="108" viewBox="0 0 120 108" fill="none" xmlns="http://www.w3.org/2000/svg">
<path fill-rule="evenodd" clip-rule="evenodd" d="M7.40001 0H112.6C116.129 0 119 2.88985 119 6.44212V76.7246C119 80.2769 116.129 83.1667 112.6 83.1667H75.5431C74.9544 84.7145 74.1432 86.1517 73.1502 87.4403V93.0061C73.1502 93.9767 72.3679 94.7633 71.4046 94.7633C70.4404 94.7633 69.659 93.9767 69.659 93.0061V90.8204C66.933 92.7832 63.5993 93.9431 60 93.9431C56.4007 93.9431 53.067 92.7832 50.341 90.8204V103.628L59.3401 99.9304C59.7632 99.7573 60.2368 99.7573 60.6599 99.9304L69.659 103.628V101.217C69.659 100.247 70.4404 99.46 71.4046 99.46C72.3679 99.46 73.1502 100.247 73.1502 101.217V106.243C73.1502 106.828 72.8603 107.375 72.3778 107.701C72.0861 107.899 71.7458 108 71.4037 108C71.1813 108 70.9572 107.957 70.7447 107.87L60 103.455L49.2553 107.87C48.7169 108.091 48.1048 108.027 47.6222 107.701C47.1397 107.375 46.8498 106.828 46.8498 106.243V87.4403C45.8568 86.1517 45.0456 84.7145 44.4569 83.1667H7.40001C3.87096 83.1667 1 80.2769 1 76.7246V37.9377C1 36.9672 1.78143 36.1806 2.74562 36.1806C3.70981 36.1806 4.49124 36.9672 4.49124 37.9377V76.7246C4.49124 78.3394 5.79573 79.6534 7.40001 79.6534H43.5395C43.4216 78.8496 43.3594 78.0286 43.3594 77.1931C43.3594 76.3576 43.4216 75.5366 43.5395 74.7328H20.8995C19.9353 74.7328 19.1539 73.9462 19.1539 72.9757C19.1539 68.519 15.5519 64.8933 11.1244 64.8933C10.1602 64.8933 9.3788 64.1068 9.3788 63.1362V20.0305C9.3788 19.0599 10.1602 18.2734 11.1244 18.2734C15.5519 18.2734 19.1539 14.6477 19.1539 10.191C19.1539 9.22051 19.9353 8.43393 20.8995 8.43393H99.1005C100.065 8.43393 100.846 9.22051 100.846 10.191C100.846 14.6477 104.448 18.2734 108.876 18.2734C109.84 18.2734 110.621 19.0599 110.621 20.0305V25.0526C110.621 26.0231 109.84 26.8097 108.876 26.8097C107.912 26.8097 107.13 26.0231 107.13 25.0526V21.6544C102.172 20.8923 98.2443 16.9385 97.4872 11.9481H22.5128C21.7566 16.9385 17.8278 20.8923 12.87 21.6544V61.5123C17.8278 62.2744 21.7566 66.2282 22.5128 71.2186H44.4569C46.8525 64.9251 52.9149 60.4421 60 60.4421C67.0851 60.4421 73.1475 64.9251 75.5431 71.2186H97.4872C98.2434 66.2282 102.172 62.2744 107.13 61.5123V33.2473C107.13 32.2768 107.911 31.4902 108.876 31.4902C109.84 31.4902 110.621 32.2768 110.621 33.2473V63.1362C110.621 64.1068 109.84 64.8933 108.876 64.8933C104.448 64.8933 100.846 68.519 100.846 72.9757C100.846 73.9462 100.065 74.7328 99.1005 74.7328H76.4605C76.5784 75.5357 76.6406 76.3567 76.6406 77.1922C76.6406 78.0286 76.5784 78.8496 76.4605 79.6525H112.6C114.203 79.6525 115.509 78.3394 115.509 76.7246V6.44212C115.509 4.82819 114.204 3.51421 112.6 3.51421H7.40001C5.79663 3.51421 4.49124 4.82819 4.49124 6.44212V29.7675C4.49124 30.7371 3.70981 31.5246 2.74562 31.5246C1.78143 31.5246 1 30.7371 1 29.7675V6.44212C1 2.88985 3.87096 0 7.40001 0ZM46.8498 77.1931C46.8498 84.4916 52.7492 90.4289 60 90.4289C67.2508 90.4289 73.1502 84.4916 73.1502 77.1931C73.1502 69.8946 67.2508 63.9563 60 63.9563C52.7492 63.9563 46.8498 69.8946 46.8498 77.1931Z" fill="#BF0018"/>
<path d="M76.2143 23C77.2006 23 78 22.3285 78 21.5C78 20.6715 77.2006 20 76.2143 20H44.7857C43.7994 20 43 20.6715 43 21.5C43 22.3285 43.7994 23 44.7857 23H76.2143Z" fill="#3E3E3E"/>
<path d="M87.2388 29H32.7612C31.7884 29 31 29.6715 31 30.5C31 31.3285 31.7884 32 32.7612 32H87.2388C88.2116 32 89 31.3285 89 30.5C89 29.6715 88.2116 29 87.2388 29Z" fill="#3E3E3E"/>
<path d="M87.2388 38H32.7612C31.7884 38 31 38.6715 31 39.5C31 40.3285 31.7884 41 32.7612 41H87.2388C88.2116 41 89 40.3285 89 39.5C89 38.6715 88.2116 38 87.2388 38Z" fill="#3E3E3E"/>
<path d="M88.2353 49H79.7647C78.79 49 78 49.6715 78 50.5C78 51.3285 78.79 52 79.7647 52H88.2353C89.21 52 90 51.3285 90 50.5C90 49.6715 89.21 49 88.2353 49Z" fill="#3E3E3E"/>
<path d="M32.7647 49C31.79 49 31 49.6715 31 50.5C31 51.3285 31.79 52 32.7647 52H41.2353C42.21 52 43 51.3285 43 50.5C43 49.6715 42.21 49 41.2353 49H32.7647Z" fill="#3E3E3E"/>
<path fill-rule="evenodd" clip-rule="evenodd" d="M60 57C56.6914 57 54 54.3086 54 51C54 47.6914 56.6914 45 60 45C63.3086 45 66 47.6914 66 51C66 54.3086 63.3086 57 60 57ZM60 53.4712C61.3626 53.4712 62.4712 52.3626 62.4712 51C62.4712 49.6374 61.3626 48.5288 60 48.5288C58.6374 48.5288 57.5288 49.6374 57.5288 51C57.5288 52.3626 58.6374 53.4712 60 53.4712Z" fill="#3E3E3E"/>
</svg>
