<svg width="26" height="18" viewBox="0 0 26 18" fill="none" xmlns="http://www.w3.org/2000/svg">
<path d="M25.8413 8.57997L17.7163 0.611219C17.5047 0.403682 17.1619 0.403682 16.9504 0.611219C16.7388 0.818755 16.7388 1.15494 16.9504 1.36242L24.1507 8.42433H0.541683C0.242277 8.42433 0 8.66195 0 8.9556C0 9.24925 0.242277 9.48686 0.541683 9.48686H24.1507L16.9504 16.5487C16.7388 16.7563 16.7388 17.0924 16.9504 17.2999C17.0561 17.4037 17.1948 17.4556 17.3334 17.4556C17.4719 17.4556 17.6105 17.4037 17.7163 17.2999L25.8413 9.33117C26.0529 9.12369 26.0529 8.78751 25.8413 8.57997Z" fill="white"/>
</svg>
