<svg width="24" height="24" viewBox="0 0 24 24" fill="none" xmlns="http://www.w3.org/2000/svg">
<path fill-rule="evenodd" clip-rule="evenodd" d="M23.153 10.0767C23.4933 10.0767 23.8867 10.3305 23.9246 10.6678C24.0265 11.5767 24.0254 12.4944 23.9194 13.3965C23.8778 13.7478 23.5613 14.013 23.217 13.9851L23.0685 13.9811C22.0078 13.9811 21.0215 14.6346 20.6138 15.6078C20.1801 16.6416 20.4509 17.8451 21.2861 18.6011C21.5478 18.8382 21.5792 19.2381 21.3576 19.5132C20.787 20.224 20.1342 20.8698 19.4164 21.4326C19.1401 21.6463 18.7479 21.615 18.5108 21.3568C17.7966 20.5728 16.5264 20.2776 15.5389 20.681C14.5172 21.0991 13.8565 22.1277 13.8967 23.2399C13.9084 23.5888 13.6508 23.8887 13.3029 23.9271C12.8637 23.976 12.4246 24 11.9855 24C11.5229 24 11.0618 23.9734 10.603 23.9198C10.2523 23.8797 9.99343 23.5719 10.0143 23.2187C10.0779 22.0946 9.42631 21.0478 8.39045 20.6143C7.40162 20.1993 6.11697 20.4931 5.39893 21.2871C5.16052 21.5499 4.7605 21.5809 4.48545 21.3594C3.78485 20.7951 3.14466 20.149 2.58739 19.4388C2.37067 19.1649 2.40347 18.7708 2.66015 18.5349C3.48074 17.7823 3.7506 16.5901 3.33138 15.5673C2.91008 14.5431 1.90724 13.8965 0.862043 13.9231C0.518074 13.9231 0.11297 13.6715 0.0750858 13.3327C-0.0264237 12.4241 -0.025282 11.5054 0.0801716 10.6042C0.122208 10.2581 0.393003 10.0025 0.773508 10.0147C1.94606 10.0147 2.97039 9.3792 3.38452 8.39267C3.81827 7.35786 3.54893 6.15492 2.7135 5.39839C2.45329 5.16164 2.4206 4.76225 2.64199 4.48668C3.21015 3.77778 3.86415 3.13168 4.58323 2.56737C4.85838 2.35283 5.2529 2.38459 5.48882 2.64324C6.2026 3.42842 7.47853 3.7206 8.45948 3.31986C9.48235 2.90085 10.1416 1.87238 10.1027 0.759632C10.0912 0.410892 10.3492 0.111246 10.6967 0.0728434C11.5958 -0.0269002 12.5001 -0.0238902 13.3966 0.0799013C13.7486 0.120899 14.0068 0.42781 13.9857 0.781013C13.9217 1.90476 14.5736 2.95171 15.6064 3.38628C16.5993 3.80051 17.8842 3.50616 18.5994 2.71403C18.8366 2.45154 19.2382 2.42102 19.5114 2.64023C20.21 3.19977 20.8495 3.84546 21.4125 4.56016C21.6288 4.83438 21.5974 5.22941 21.3393 5.46533C20.5201 6.21688 20.2506 7.40955 20.6683 8.43242C21.0776 9.43131 22.0534 10.0767 23.153 10.0767ZM5.08174 12.0001C5.08174 15.8209 8.17903 18.9182 12 18.9182C13.371 18.9182 14.6476 18.5177 15.7227 17.8298L12.6605 14.7676C12.1435 14.987 11.5829 15.1027 11.0044 15.1027C9.87147 15.1027 8.80635 14.6616 8.00517 13.8605C6.93434 12.7896 6.51502 11.2151 6.91057 9.7513C6.96849 9.53842 7.15241 9.39 7.35782 9.39C7.44594 9.39 7.57817 9.41698 7.70708 9.54548C7.70708 9.54548 9.14399 10.9721 9.66482 11.4929C9.74557 11.5736 9.83442 11.5905 9.89483 11.5905C9.90583 11.5905 9.91413 11.5899 9.9186 11.5893L9.94371 11.583L9.94361 11.586C10.5024 11.536 11.1729 11.4376 11.43 11.3551C11.4333 11.3518 11.4364 11.3485 11.4396 11.3452C11.4474 11.3372 11.4551 11.3292 11.4632 11.321C11.469 11.3153 11.4746 11.31 11.4801 11.3048C11.4851 11.3001 11.4901 11.2954 11.4952 11.2903C11.5754 11.0365 11.6727 10.3762 11.7231 9.82613L11.7278 9.79323C11.7352 9.74818 11.7353 9.62311 11.6829 9.5707C11.1825 9.07042 9.68693 7.56337 9.68693 7.56337C9.55926 7.4356 9.51038 7.26819 9.55376 7.10482C9.59621 6.94509 9.72658 6.81369 9.886 6.7702C10.25 6.67108 10.6263 6.62084 11.0043 6.62084C12.137 6.62084 13.202 7.06195 14.0029 7.86291C14.8041 8.66387 15.2453 9.72888 15.2453 10.8618C15.2455 11.4403 15.1296 12.0009 14.9103 12.518L17.9396 15.5473C18.5606 14.51 18.9182 13.297 18.9182 12.0001C18.9182 8.17937 15.8208 5.08213 12 5.08213C8.17913 5.08213 5.08174 8.17937 5.08174 12.0001Z" fill="white"/>
</svg>
