<svg width="22" height="22" viewBox="0 0 22 22" fill="none" xmlns="http://www.w3.org/2000/svg">
<path d="M16.8272 10.3317C16.7158 10.0782 16.4711 9.91667 16.2016 9.91667H13.4516V0.708333C13.4516 0.317333 13.1436 0 12.7641 0H10.014C9.63453 0 9.32653 0.317333 9.32653 0.708333V9.91667H6.57651C6.307 9.91667 6.06225 10.0796 5.95088 10.3317C5.83812 10.5853 5.88213 10.8814 6.0595 11.0911L10.872 16.7577C11.0027 16.9122 11.191 17 11.389 17C11.587 17 11.7754 16.9107 11.906 16.7577L16.7186 11.0911C16.8973 10.8828 16.9386 10.5853 16.8272 10.3317Z" fill="#3E3E3E"/>
<path d="M19.0889 15V19.2H3.68892V15H0.888916V20.6C0.888916 21.3742 1.51612 22 2.28892 22H20.4889C21.2631 22 21.8889 21.3742 21.8889 20.6V15H19.0889Z" fill="#3E3E3E"/>
</svg>
