<svg width="22" height="22" viewBox="0 0 22 22" fill="none" xmlns="http://www.w3.org/2000/svg">
<path d="M15.4383 10.3317C15.3269 10.0782 15.0822 9.91667 14.8127 9.91667H12.0626V0.708333C12.0626 0.317333 11.7546 0 11.3751 0H8.62511C8.24561 0 7.93761 0.317333 7.93761 0.708333V9.91667H5.18759C4.91809 9.91667 4.67334 10.0796 4.56196 10.3317C4.44921 10.5853 4.49321 10.8814 4.67059 11.0911L9.48312 16.7577C9.61375 16.9122 9.80212 17 10.0001 17C10.1981 17 10.3865 16.9107 10.5171 16.7577L15.3297 11.0911C15.5084 10.8828 15.5497 10.5853 15.4383 10.3317Z" fill="white"/>
<path d="M18.7 15V19.2H3.3V15H0.5V20.6C0.5 21.3742 1.1272 22 1.9 22H20.1C20.8742 22 21.5 21.3742 21.5 20.6V15H18.7Z" fill="white"/>
</svg>
