<svg width="38" height="38" viewBox="0 0 38 38" fill="#3d3d3d" xmlns="http://www.w3.org/2000/svg">
<path d="M26.3548 12.2583H11.0322L18.6935 19.0002L26.3548 12.2583Z" fill="#3d3d3d"/>
<path d="M18.6935 20.2727C18.5303 20.2727 18.3724 20.2142 18.2485 20.1078L9.8064 12.8711V25.7421H27.5806V12.8711L19.1384 20.1078C19.0146 20.2142 18.8567 20.2727 18.6935 20.2727Z" fill="#3d3d3d"/>
<path fill-rule="evenodd" clip-rule="evenodd" d="M0 19C0 8.50666 8.50666 0 19 0C29.4884 0.011928 37.9881 8.51163 38 19C38 29.4933 29.4933 38 19 38C8.50666 38 0 29.4933 0 19ZM28.5 27.1429C28.8747 27.1429 29.1786 26.839 29.1786 26.4643V11.5357C29.1786 11.161 28.8747 10.8571 28.5 10.8571H9.5C9.12526 10.8571 8.82143 11.161 8.82143 11.5357V26.4643C8.82143 26.839 9.12526 27.1429 9.5 27.1429H28.5Z" fill="#3d3d3d"/>
</svg>
