<svg width="50" height="77" viewBox="0 0 50 77" fill="none" xmlns="http://www.w3.org/2000/svg">
<path d="M24.3504 0C11.1166 0 0.350098 10.948 0.350098 24.405C0.350098 29.8308 4.09166 40.1813 11.4704 55.1687C16.8823 66.1595 22.368 75.7781 22.4225 75.8738C22.8209 76.5712 23.5552 77 24.3504 77C25.145 77 25.8798 76.5712 26.2777 75.8738C26.3328 75.7781 31.8184 66.1595 37.2298 55.1687C44.6085 40.1813 48.3501 29.8308 48.3501 24.405C48.3507 10.948 37.5842 0 24.3504 0Z" fill="#AF1D24"/>
<path d="M24.3501 0C24.3501 0 24.3501 31.3306 24.3501 46.9959C24.3501 56.9973 24.3501 77 24.3501 77C25.1778 77 25.9433 76.5712 26.3578 75.8738C26.4152 75.7781 32.1294 66.1595 37.7663 55.1687C45.4526 40.1813 49.3501 29.8308 49.3501 24.405C49.3507 10.948 38.1355 0 24.3501 0Z" fill="#AF1D24"/>
<path d="M35.2477 16.1029C32.6031 13.4579 29.0872 12.0012 25.348 12C25.3462 12 25.3456 12 25.3439 12C21.6059 12 18.0911 13.4555 15.4484 16.0988C12.8044 18.7421 11.3489 22.258 11.3501 25.9976C11.3507 29.7373 12.808 33.2526 15.4525 35.8976C18.0971 38.5421 21.6136 39.9988 25.3528 40H25.3563C29.0943 40 32.6091 38.5445 35.2518 35.9018C37.8958 33.2579 39.3513 29.7426 39.3501 26.0024C39.3495 22.2633 37.8928 18.7474 35.2477 16.1029Z" fill="#EDEDF2"/>
<path d="M35.2472 16.1029C32.6033 13.4585 29.0886 12.0018 25.3501 12V40H25.3525H25.356C29.0945 40 32.6086 38.5445 35.2513 35.9018C37.8952 33.2579 39.3507 29.742 39.3501 26.0024C39.3489 22.2633 37.8922 18.7474 35.2472 16.1029Z" fill="#EDEDF2"/>
<path d="M28.0054 25.5L29.6964 23.809C30.568 22.9374 30.568 21.5248 29.6964 20.6537C28.8253 19.7821 27.4122 19.7821 26.5411 20.6537L24.8502 22.3447L23.1592 20.6537C22.2876 19.7821 20.875 19.7821 20.0034 20.6537C19.1323 21.5248 19.1323 22.9374 20.0034 23.809L21.6943 25.5L20.0034 27.191C19.1323 28.0626 19.1323 29.4752 20.0034 30.3469C20.4392 30.7821 21.0104 31 21.581 31C22.1522 31 22.7234 30.7821 23.1592 30.3469L24.8502 28.6559L26.5411 30.3469C26.9769 30.7821 27.5475 31 28.1187 31C28.6894 31 29.2606 30.7821 29.6964 30.3469C30.568 29.4752 30.568 28.0626 29.6964 27.191L28.0054 25.5Z" fill="#B61D22"/>
</svg>
