<svg width="38" height="38" viewBox="0 0 38 38" fill="#3d3d3d" xmlns="http://www.w3.org/2000/svg">
<path fill-rule="evenodd" clip-rule="evenodd" d="M5.56294 5.56702C12.9818 -1.8541 25.0119 -1.85588 32.433 5.56294C35.9965 9.12528 37.999 13.9572 38 18.9959C38.0011 24.0354 36 28.8689 32.4371 32.433C25.0183 39.8541 12.9882 39.8559 5.56702 32.4371C-1.8541 25.0182 -1.85589 12.9881 5.56294 5.56702ZM28.7723 26.4693L28.7748 26.4668C29.0883 26.1519 29.0872 25.6427 28.7722 25.3294L25.2066 21.7574L25.204 21.7548C24.8893 21.4414 24.38 21.4425 24.0666 21.7574L22.0462 23.8094C21.4577 24.3939 20.5353 24.4739 19.8549 23.9994C18.6775 23.176 17.5754 22.2498 16.5616 21.2317C15.6524 20.3256 14.8159 19.3494 14.0599 18.312C13.5622 17.631 13.6376 16.6885 14.2373 16.0953L16.3272 14.0053L16.3298 14.0028C16.6432 13.688 16.6421 13.1787 16.3272 12.8653L12.7679 9.30601L12.7654 9.30348C12.4507 8.99006 11.9414 8.99117 11.6279 9.30601L10.5006 10.4333C9.13256 11.779 8.6422 13.7821 9.23395 15.6076C9.75014 17.1615 10.479 18.6364 11.3999 19.9903C12.2419 21.2485 13.2072 22.4197 14.2816 23.4863C15.4494 24.6612 16.7429 25.7039 18.1386 26.596C19.641 27.5827 21.2916 28.3225 23.0279 28.7873C24.7514 29.1988 26.5646 28.68 27.8096 27.4193L28.7723 26.463V26.4693Z" fill="#3d3d3d"/>
</svg>
