<svg width="16" height="16" viewBox="0 0 16 16" fill="none" xmlns="http://www.w3.org/2000/svg">
<path fill-rule="evenodd" clip-rule="evenodd" d="M13.2424 6.72889C13.2424 8.14671 12.8101 9.46144 12.0734 10.5459L16 14.5363L14.5595 16L10.6723 12.0496C9.55244 12.9314 8.14772 13.4577 6.62119 13.4577C2.96384 13.4577 0 10.4451 0 6.72886C0 3.01266 2.96384 0 6.62119 0C10.2785 0 13.2424 3.01269 13.2424 6.72889ZM1.42609 6.72886C1.42609 9.64011 3.75659 12.0085 6.62119 12.0085C9.48578 12.0085 11.8163 9.64011 11.8163 6.72886C11.8163 3.8176 9.48584 1.44926 6.62119 1.44926C3.75653 1.44926 1.42609 3.81767 1.42609 6.72886Z" fill="#630713"/>
<path d="M5.69681 2C3.91351 2.51231 2.51252 3.91337 2 5.69679L3.05689 6C3.46277 4.58329 4.58343 3.46241 6 3.0565L5.69681 2Z" fill="#630713"/>
</svg>
