<svg width="17" height="16" viewBox="0 0 17 16" fill="none" xmlns="http://www.w3.org/2000/svg">
<path fill-rule="evenodd" clip-rule="evenodd" d="M14.07 6.72889C14.07 8.14671 13.6107 9.46144 12.828 10.5459L17 14.5363L15.4694 16L11.3394 12.0496C10.1495 12.9314 8.65695 13.4577 7.03501 13.4577C3.14908 13.4577 0 10.4451 0 6.72886C0 3.01266 3.14908 0 7.03501 0C10.9209 0 14.07 3.01269 14.07 6.72889ZM1.51522 6.72886C1.51522 9.64011 3.99138 12.0085 7.03501 12.0085C10.0786 12.0085 12.5548 9.64011 12.5548 6.72886C12.5548 3.8176 10.0787 1.44926 7.03501 1.44926C3.99131 1.44926 1.51522 3.81767 1.51522 6.72886Z" fill="#0276BA"/>
<path d="M6.05286 2C4.15811 2.51231 2.66956 3.91337 2.125 5.69679L3.24794 6C3.67919 4.58329 4.8699 3.46241 6.375 3.0565L6.05286 2Z" fill="#0276BA"/>
</svg>
