<svg width="45" height="36" viewBox="0 0 45 36" fill="none" xmlns="http://www.w3.org/2000/svg">
<path d="M37.5531 11.3358C37.1754 5.0358 31.8584 0 25.4479 0C21.5564 0 17.7881 1.8641 15.4532 4.9056C15.4002 4.8783 15.3436 4.8601 15.2898 4.8342C15.1479 4.767 15.0039 4.7026 14.8562 4.6459C14.7738 4.6144 14.6914 4.5857 14.6083 4.557C14.4635 4.5073 14.3173 4.4639 14.1675 4.424C14.0844 4.4023 14.002 4.3799 13.9174 4.361C13.7569 4.3253 13.5935 4.298 13.4279 4.2742C13.3548 4.2637 13.2832 4.2497 13.2093 4.2413C12.9728 4.2161 12.732 4.2 12.4877 4.2C8.93156 4.2 6.03766 7.0259 6.03766 10.5C6.03766 10.5903 6.04268 10.6785 6.04913 10.7667C3.06851 12.3536 1.021 15.6793 1.021 19.0078C1.021 23.9659 5.15043 28 10.2266 28H13.921C14.3166 28 14.6377 27.6871 14.6377 27.3C14.6377 26.9129 14.3166 26.6 13.921 26.6H10.2266C5.94091 26.6 2.45433 23.1945 2.45433 19.0078C2.45433 16.1 4.39291 13.0816 7.06393 11.8307L7.471 11.641V11.2C7.471 11.1139 7.47673 11.0257 7.48175 10.9375L7.4882 10.815L7.4796 10.6834C7.47601 10.6225 7.471 10.5616 7.471 10.5C7.471 7.7987 9.72133 5.6 12.4877 5.6C12.7091 5.6 12.9277 5.6189 13.1448 5.6469C13.2007 5.6539 13.2559 5.663 13.3111 5.6721C13.5032 5.7029 13.6924 5.7435 13.8787 5.796C13.9031 5.803 13.9282 5.8072 13.9518 5.8142C14.1568 5.8751 14.3567 5.9528 14.5524 6.0396C14.6018 6.0613 14.6506 6.0851 14.6993 6.1089C14.8727 6.1922 15.0426 6.2846 15.206 6.3882C16.587 7.2625 17.5043 8.7773 17.5043 10.5C17.5043 10.8871 17.8254 11.2 18.221 11.2C18.6166 11.2 18.9377 10.8871 18.9377 10.5C18.9377 8.5722 18.0447 6.8467 16.6443 5.6903C18.6983 3.0653 22.0824 1.4 25.4479 1.4C30.9977 1.4 35.6088 5.6945 36.0889 11.1209C35.3565 11.0705 34.2593 11.0446 33.1628 11.2084C32.7715 11.2665 32.5027 11.6235 32.5622 12.0057C32.616 12.3522 32.9213 12.6007 33.2696 12.6007C33.3054 12.6007 33.3419 12.5979 33.3785 12.5923C34.9724 12.3571 36.6343 12.5776 36.7354 12.5909C40.0722 13.2104 42.5877 16.2127 42.5877 19.5804C42.5877 23.4507 39.3634 26.6 35.4009 26.6H32.5543C32.1587 26.6 31.8377 26.9129 31.8377 27.3C31.8377 27.6871 32.1587 28 32.5543 28H35.4009C40.1539 28 44.021 24.2228 44.021 19.5804C44.021 15.7381 41.2783 12.292 37.5531 11.3358Z" fill="#1B1B1B"/>
<path d="M23.493 18.2108C23.4317 18.1438 23.3577 18.0913 23.2757 18.0545C23.113 17.9818 22.929 17.9818 22.7663 18.0545C22.6843 18.0913 22.611 18.1438 22.549 18.2108L17.2165 23.9704C16.9558 24.2519 16.9558 24.707 17.2165 24.9885C17.3465 25.1289 17.5171 25.1995 17.6878 25.1995C17.8585 25.1995 18.0291 25.1289 18.1591 24.9885L22.3543 20.4573V35.28C22.3543 35.6781 22.653 36 23.021 36C23.389 36 23.6876 35.6781 23.6876 35.28V20.4573L27.8829 24.9885C28.0129 25.1289 28.1835 25.1995 28.3542 25.1995C28.5248 25.1995 28.6955 25.1289 28.8255 24.9885C29.0862 24.707 29.0862 24.2519 28.8255 23.9704L23.493 18.2108Z" fill="#BF001A"/>
</svg>
